<?xml version="1.0" encoding="utf-8"?>
<!-- Generator: Adobe Illustrator 17.0.0, SVG Export Plug-In . SVG Version: 6.00 Build 0)  -->
<!DOCTYPE svg PUBLIC "-//W3C//DTD SVG 1.1//EN" "http://www.w3.org/Graphics/SVG/1.1/DTD/svg11.dtd">
<svg version="1.1" id="Capa_1" xmlns="http://www.w3.org/2000/svg" xmlns:xlink="http://www.w3.org/1999/xlink" x="0px" y="0px"
	 width="26px" height="26px" viewBox="0 0 26 26" enable-background="new 0 0 26 26" xml:space="preserve">
<g>
	<g>
		<g>
			<path fill="#4C4B62" d="M24.813,21.072l-6.347-5.837c-0.453-0.397-1.133-0.397-1.587,0.057l-0.34,0.34l-0.963-0.963
				c1.36-1.53,2.097-3.513,2.097-5.61c0-4.703-3.797-8.5-8.5-8.5s-8.5,3.797-8.5,8.5s3.797,8.5,8.5,8.5
				c1.473,0,2.947-0.397,4.25-1.133c0.283-0.17,0.34-0.51,0.227-0.793c-0.17-0.283-0.51-0.34-0.793-0.227
				c-1.133,0.623-2.38,0.963-3.683,0.963c-4.08,0.057-7.367-3.23-7.367-7.31s3.287-7.366,7.366-7.366s7.367,3.287,7.367,7.367
				c0,1.927-0.737,3.797-2.097,5.157c-0.113,0.113-0.17,0.227-0.17,0.397v0.113c0,0.17,0.057,0.283,0.17,0.397l1.303,1.303
				l-0.34,0.34c-0.453,0.453-0.453,1.133-0.057,1.587l5.837,6.347c0.453,0.51,1.133,0.793,1.87,0.793c1.417,0,2.55-1.133,2.55-2.55
				C25.607,22.262,25.323,21.582,24.813,21.072z M23.057,24.359c-0.397,0-0.793-0.17-1.02-0.453L16.2,17.559l1.473-1.473
				l6.347,5.837c0.283,0.283,0.453,0.623,0.453,1.02C24.473,23.735,23.85,24.359,23.057,24.359z"/>
		</g>
	</g>
	<g>
		<g>
			<path fill="#4C4B62" d="M9.174,2.826c-3.457,0-6.233,2.777-6.233,6.233s2.777,6.233,6.233,6.233s6.233-2.777,6.233-6.233
				S12.63,2.826,9.174,2.826z M9.174,14.159c-2.833,0-5.1-2.267-5.1-5.1s2.267-5.1,5.1-5.1s5.1,2.267,5.1,5.1
				S12.007,14.159,9.174,14.159z"/>
		</g>
	</g>
</g>
</svg>
